<svg width="125" height="126" viewBox="0 0 125 126" fill="none" xmlns="http://www.w3.org/2000/svg">
<mask id="mask0_3_107" style="mask-type:alpha" maskUnits="userSpaceOnUse" x="0" y="0" width="125" height="126">
<rect x="0.240908" y="1.2226" width="124" height="124" transform="rotate(-0.216952 0.240908 1.2226)" fill="#C4C4C4"/>
</mask>
<g mask="url(#mask0_3_107)">
<path d="M51.7935 100.098L103.256 99.9027C103.6 99.9014 103.955 99.9 104.29 99.9352L104.29 99.8988C112.694 99.867 119.508 93.0042 119.476 84.5977C119.444 76.1911 112.579 69.38 104.175 69.4119C102.98 69.4164 101.746 69.5762 100.499 69.888C100.093 69.991 99.6591 69.9194 99.3088 69.6869C98.9584 69.4543 98.7203 69.0917 98.6539 68.6777C96.9107 57.8314 87.6767 49.995 76.6972 50.0366C64.4635 50.0829 54.5503 60.0716 54.5966 72.3052C54.5989 72.9083 54.6435 73.5 54.6936 74.0888C54.732 74.5339 54.5702 74.9714 54.2528 75.2826C53.9327 75.5994 53.4908 75.7505 53.051 75.7042C52.6056 75.6608 52.1574 75.6316 51.7008 75.6334C44.957 75.6589 39.4908 81.1666 39.5163 87.9105C39.5419 94.6571 45.0496 100.123 51.7935 100.098L51.7935 100.098ZM51.6079 72.6407C51.6052 72.5337 51.6048 72.4239 51.6044 72.3167C51.5518 58.4316 62.8043 47.0964 76.6865 47.0438C88.6243 46.9986 98.7443 55.1585 101.316 66.6639C102.276 66.5025 103.228 66.4228 104.164 66.4192C114.219 66.3811 122.431 74.5313 122.469 84.5865C122.508 94.6417 114.357 102.854 104.294 102.892L90.6905 102.943L51.8055 103.091C43.4102 103.122 36.5559 96.3199 36.5241 87.9218C36.4924 79.5575 43.25 72.7175 51.6084 72.6407" fill="white"/>
<path d="M28.5823 95.253C19.205 93.0866 11.0623 87.3448 5.96349 79.1822C-4.64398 62.2009 0.561818 39.7518 17.5423 29.1442C34.5235 18.5367 56.9188 23.6923 67.5263 40.6734C69.0484 43.1102 65.6284 44.2335 64.5737 42.545C54.9769 27.1817 34.7271 22.5535 19.3637 32.1505C4.00031 41.7473 -0.631469 61.893 8.96598 77.2566C13.5696 84.6264 20.8816 89.8883 29.3481 91.8444C31.4628 92.3329 31.0823 95.8305 28.5815 95.2528L28.5823 95.253Z" fill="white"/>
</g>
</svg>
