<svg width="36" height="22" viewBox="0 0 36 22" fill="none" xmlns="http://www.w3.org/2000/svg">
<path d="M5.34039 10.2655C7.86594 10.2559 9.90646 8.19986 9.8969 5.67431C9.88734 3.14876 7.8313 1.10824 5.30575 1.1178C2.7802 1.12737 0.739675 3.1834 0.749238 5.70895C0.758801 8.2345 2.81484 10.275 5.34039 10.2655ZM5.33286 8.27684C3.90105 8.28226 2.74328 7.13323 2.73786 5.70142C2.73244 4.26961 3.88147 3.11185 5.31328 3.10642C6.74509 3.101 7.90286 4.25004 7.90828 5.68184C7.9137 7.11365 6.76467 8.27142 5.33286 8.27684ZM35.6087 7.52583C34.8372 3.35259 31.487 0.899346 27.3904 0.914858C22.1802 0.934587 18.4171 4.96591 18.4415 11.409C18.4659 17.8522 22.2595 21.8549 27.4697 21.8352C31.5662 21.8197 34.8978 19.3411 35.6376 15.1621L33.1717 15.1715C32.5858 17.9976 30.1654 19.5181 27.4609 19.5284C23.7621 19.5424 20.8479 16.6897 20.8278 11.4C20.8078 6.11028 23.7003 3.23567 27.3992 3.22166C30.1037 3.21142 32.5355 4.71358 33.1428 7.53517L35.6087 7.52583Z" fill="white"/>
</svg>
