<svg width="126" height="127" viewBox="0 0 126 127" fill="none" xmlns="http://www.w3.org/2000/svg">
<path d="M43.956 74.3583L103.223 73.7664C103.618 73.7625 104.029 73.7584 104.414 73.7944L104.413 73.7545C114.093 73.6578 121.893 65.7588 121.797 56.146C121.701 46.5299 113.745 38.7882 104.065 38.8849C102.691 38.8986 101.266 39.092 99.8353 39.4582C99.3686 39.5789 98.8698 39.4978 98.4627 39.236C98.059 38.9745 97.7806 38.5558 97.7024 38.0852C95.6198 25.6937 84.9245 16.7943 72.2835 16.9205C58.1953 17.0612 46.8446 28.5578 46.9844 42.5521C46.9913 43.2392 47.0515 43.919 47.1152 44.589C47.1569 45.0998 46.9747 45.6029 46.6107 45.9618C46.25 46.3206 45.737 46.4984 45.2318 46.4503C44.7198 46.4023 44.2014 46.3742 43.6766 46.3794C35.9089 46.457 29.6512 52.7971 29.7282 60.5079C29.8052 68.222 36.1883 74.4357 43.9561 74.3582L43.956 74.3583ZM43.5457 42.9581C43.5444 42.832 43.5405 42.7095 43.5393 42.5865C43.3807 26.7068 56.2636 13.6579 72.2502 13.4982C85.9975 13.3609 97.7128 22.6221 100.756 35.7641C101.857 35.5739 102.955 35.4698 104.032 35.4591C115.613 35.3434 125.129 44.6099 125.244 56.1114C125.359 67.6129 116.03 77.0642 104.438 77.18L88.7725 77.3364L43.9911 77.7837C34.3215 77.8802 26.3789 70.1451 26.283 60.5423C26.1874 50.9726 33.9207 43.1041 43.5463 42.9581" fill="white"/>
<path d="M21.9541 24.665C23.035 24.6542 24.1336 24.7343 25.2397 24.9057C28.024 11.4822 39.5607 1.82412 53.3245 1.68666C59.3179 1.6268 65.0887 3.39943 70.0156 6.80805C70.7975 7.35404 70.999 8.43603 70.4614 9.22819C69.9205 10.0238 68.8482 10.2236 68.0597 9.68104C63.7224 6.67512 58.6399 5.11506 53.3592 5.1678C40.7032 5.2942 30.1766 14.5639 28.3416 27.2047C28.2694 27.6916 27.9994 28.1198 27.6005 28.3939C27.205 28.668 26.7106 28.7608 26.2342 28.6475C24.7916 28.3006 23.3676 28.1325 21.9889 28.1463C12.2977 28.2431 4.48974 36.2801 4.5874 46.0582C4.67849 55.178 11.5274 62.694 20.5151 63.5396C21.4631 63.6314 22.1611 64.4821 22.0736 65.4386C21.9888 66.3343 21.2459 67.0103 20.3725 67.019C20.3157 67.0196 20.252 67.0176 20.1951 67.0101C9.43866 65.9964 1.24639 57.0047 1.1374 46.092C1.02056 34.3927 10.359 24.7803 21.9543 24.6645" fill="white"/>
<path d="M43.0972 91.7933C42.0822 91.8059 41.271 92.6333 41.2787 93.6483L41.307 96.4757L38.4797 96.504C37.4671 96.5141 36.6535 97.3441 36.6612 98.3592C36.6738 99.3741 37.5038 100.188 38.5164 100.177L41.3437 100.149L41.3694 102.974C41.3795 103.987 42.2095 104.8 43.2245 104.793C43.7333 104.788 44.1934 104.575 44.5203 104.242C44.8496 103.906 45.0505 103.444 45.0429 102.938L45.0172 100.113L47.8421 100.082C48.3508 100.077 48.8061 99.8691 49.1354 99.5333C49.4647 99.1973 49.6656 98.7355 49.6605 98.2268C49.6479 97.2118 48.818 96.3983 47.8054 96.4085L44.9805 96.439L44.9523 93.6116C44.9421 92.5991 44.1122 91.7856 43.0972 91.7933" fill="white"/>
<path d="M75.0955 91.4737C74.0806 91.4863 73.2694 92.3137 73.2771 93.3287L73.3054 96.1561L70.4781 96.1844C69.4655 96.1945 68.6519 97.0246 68.6596 98.0396C68.6721 99.0546 69.5022 99.868 70.5148 99.8579L73.342 99.8297L73.3678 102.655C73.3779 103.667 74.2079 104.481 75.2229 104.473C75.7316 104.468 76.1918 104.256 76.5187 103.922C76.848 103.586 77.0489 103.124 77.0413 102.618L77.0156 99.793L79.8405 99.7624C80.3492 99.7573 80.8045 99.5496 81.1338 99.2137C81.4631 98.8778 81.664 98.4159 81.6589 97.9072C81.6463 96.8922 80.8163 96.0788 79.8038 96.0889L76.9789 96.1195L76.9506 93.2921C76.9405 92.2795 76.1106 91.466 75.0955 91.4737" fill="white"/>
<path d="M107.094 91.1541C106.079 91.1667 105.268 91.9941 105.275 93.0092L105.304 95.8366L102.476 95.8648C101.464 95.8749 100.65 96.705 100.658 97.72C100.671 98.735 101.5 99.5485 102.513 99.5383L105.34 99.5101L105.366 102.335C105.376 103.348 106.206 104.161 107.221 104.154C107.73 104.148 108.19 103.936 108.517 103.602C108.846 103.266 109.047 102.805 109.04 102.298L109.014 99.4734L111.839 99.4428C112.348 99.4378 112.803 99.23 113.132 98.8941C113.461 98.5582 113.662 98.0964 113.657 97.5876C113.645 96.5727 112.815 95.7592 111.802 95.7693L108.977 95.7999L108.949 92.9725C108.939 91.9599 108.109 91.1464 107.094 91.1541Z" fill="white"/>
<path d="M27.3077 112.952C26.2927 112.965 25.4815 113.792 25.4892 114.807L25.5175 117.634L22.6902 117.663C21.6776 117.673 20.864 118.503 20.8717 119.518C20.8843 120.533 21.7143 121.346 22.7269 121.336L25.5542 121.308L25.5799 124.133C25.5901 125.146 26.42 125.959 27.435 125.951C27.9438 125.946 28.4039 125.734 28.7308 125.4C29.0601 125.064 29.261 124.603 29.2535 124.096L29.2277 121.271L32.0526 121.241C32.5613 121.236 33.0166 121.028 33.3459 120.692C33.6752 120.356 33.8761 119.894 33.871 119.386C33.8584 118.371 33.0285 117.557 32.0159 117.567L29.191 117.598L29.1628 114.77C29.1527 113.758 28.3227 112.944 27.3077 112.952" fill="white"/>
<path d="M59.306 112.632C58.2911 112.645 57.4799 113.472 57.4876 114.487L57.5159 117.315L54.6886 117.343C53.676 117.353 52.8624 118.183 52.8701 119.198C52.8826 120.213 53.7127 121.027 54.7253 121.017L57.5526 120.988L57.5783 123.813C57.5884 124.826 58.4184 125.64 59.4334 125.632C59.9422 125.627 60.4023 125.414 60.7292 125.081C61.0585 124.745 61.2594 124.283 61.2518 123.777L61.2261 120.952L64.051 120.921C64.5597 120.916 65.015 120.708 65.3443 120.372C65.6736 120.037 65.8745 119.575 65.8694 119.066C65.8568 118.051 65.0269 117.238 64.0143 117.248L61.1894 117.278L61.1611 114.451C61.151 113.438 60.3211 112.625 59.306 112.632" fill="white"/>
<path d="M91.3045 112.313C90.2895 112.325 89.4783 113.153 89.486 114.168L89.5143 116.995L86.687 117.024C85.6744 117.034 84.8608 117.864 84.8685 118.879C84.8811 119.894 85.7111 120.707 86.7237 120.697L89.551 120.669L89.5767 123.494C89.5868 124.506 90.4168 125.32 91.4318 125.312C91.9406 125.307 92.4007 125.095 92.7276 124.761C93.0569 124.425 93.2578 123.963 93.2503 123.457L93.2245 120.632L96.0494 120.602C96.5581 120.597 97.0134 120.389 97.3427 120.053C97.672 119.717 97.8729 119.255 97.8678 118.746C97.8552 117.731 97.0253 116.918 96.0127 116.928L93.1878 116.959L93.1596 114.131C93.1494 113.119 92.3195 112.305 91.3045 112.313" fill="white"/>
</svg>
