<svg width="0" height="0" class="hidden">
  <symbol fill="none" xmlns="http://www.w3.org/2000/svg" viewBox="0 0 125 126" id="cloud">
    <mask id="mask0_3_107" maskUnits="userSpaceOnUse" x="0" y="0" width="125" height="126">
      <rect x="0.240908" y="1.2226" width="124" height="124" transform="rotate(-0.216952 0.240908 1.2226)" fill="#C4C4C4"></rect>
    </mask>
    <g mask="url(#mask0_3_107)">
      <path d="M51.7935 100.098L103.256 99.9027C103.6 99.9014 103.955 99.9 104.29 99.9352L104.29 99.8988C112.694 99.867 119.508 93.0042 119.476 84.5977C119.444 76.1911 112.579 69.38 104.175 69.4119C102.98 69.4164 101.746 69.5762 100.499 69.888C100.093 69.991 99.6591 69.9194 99.3088 69.6869C98.9584 69.4543 98.7203 69.0917 98.6539 68.6777C96.9107 57.8314 87.6767 49.995 76.6972 50.0366C64.4635 50.0829 54.5503 60.0716 54.5966 72.3052C54.5989 72.9083 54.6435 73.5 54.6936 74.0888C54.732 74.5339 54.5702 74.9714 54.2528 75.2826C53.9327 75.5994 53.4908 75.7505 53.051 75.7042C52.6056 75.6608 52.1574 75.6316 51.7008 75.6334C44.957 75.6589 39.4908 81.1666 39.5163 87.9105C39.5419 94.6571 45.0496 100.123 51.7935 100.098L51.7935 100.098ZM51.6079 72.6407C51.6052 72.5337 51.6048 72.4239 51.6044 72.3167C51.5518 58.4316 62.8043 47.0964 76.6865 47.0438C88.6243 46.9986 98.7443 55.1585 101.316 66.6639C102.276 66.5025 103.228 66.4228 104.164 66.4192C114.219 66.3811 122.431 74.5313 122.469 84.5865C122.508 94.6417 114.357 102.854 104.294 102.892L90.6905 102.943L51.8055 103.091C43.4102 103.122 36.5559 96.3199 36.5241 87.9218C36.4924 79.5575 43.25 72.7175 51.6084 72.6407" fill="white"></path>
      <path d="M28.5823 95.253C19.205 93.0866 11.0623 87.3448 5.96349 79.1822C-4.64398 62.2009 0.561818 39.7518 17.5423 29.1442C34.5235 18.5367 56.9188 23.6923 67.5263 40.6734C69.0484 43.1102 65.6284 44.2335 64.5737 42.545C54.9769 27.1817 34.7271 22.5535 19.3637 32.1505C4.00031 41.7473 -0.631469 61.893 8.96598 77.2566C13.5696 84.6264 20.8816 89.8883 29.3481 91.8444C31.4628 92.3329 31.0823 95.8305 28.5815 95.2528L28.5823 95.253Z" fill="white"></path>
    </g>
  </symbol>
  <symbol fill="none" xmlns="http://www.w3.org/2000/svg" viewBox="0 0 36 22" id="degree">
    <path d="M5.34039 10.2655C7.86594 10.2559 9.90646 8.19986 9.8969 5.67431C9.88734 3.14876 7.8313 1.10824 5.30575 1.1178C2.7802 1.12737 0.739675 3.1834 0.749238 5.70895C0.758801 8.2345 2.81484 10.275 5.34039 10.2655ZM5.33286 8.27684C3.90105 8.28226 2.74328 7.13323 2.73786 5.70142C2.73244 4.26961 3.88147 3.11185 5.31328 3.10642C6.74509 3.101 7.90286 4.25004 7.90828 5.68184C7.9137 7.11365 6.76467 8.27142 5.33286 8.27684ZM35.6087 7.52583C34.8372 3.35259 31.487 0.899346 27.3904 0.914858C22.1802 0.934587 18.4171 4.96591 18.4415 11.409C18.4659 17.8522 22.2595 21.8549 27.4697 21.8352C31.5662 21.8197 34.8978 19.3411 35.6376 15.1621L33.1717 15.1715C32.5858 17.9976 30.1654 19.5181 27.4609 19.5284C23.7621 19.5424 20.8479 16.6897 20.8278 11.4C20.8078 6.11028 23.7003 3.23567 27.3992 3.22166C30.1037 3.21142 32.5355 4.71358 33.1428 7.53517L35.6087 7.52583Z" fill="white"></path>
  </symbol>
  <symbol fill="none" xmlns="http://www.w3.org/2000/svg" viewBox="0 0 126 127" id="snow">
    <path d="M43.956 74.3583L103.223 73.7664C103.618 73.7625 104.029 73.7584 104.414 73.7944L104.413 73.7545C114.093 73.6578 121.893 65.7588 121.797 56.146C121.701 46.5299 113.745 38.7882 104.065 38.8849C102.691 38.8986 101.266 39.092 99.8353 39.4582C99.3686 39.5789 98.8698 39.4978 98.4627 39.236C98.059 38.9745 97.7806 38.5558 97.7024 38.0852C95.6198 25.6937 84.9245 16.7943 72.2835 16.9205C58.1953 17.0612 46.8446 28.5578 46.9844 42.5521C46.9913 43.2392 47.0515 43.919 47.1152 44.589C47.1569 45.0998 46.9747 45.6029 46.6107 45.9618C46.25 46.3206 45.737 46.4984 45.2318 46.4503C44.7198 46.4023 44.2014 46.3742 43.6766 46.3794C35.9089 46.457 29.6512 52.7971 29.7282 60.5079C29.8052 68.222 36.1883 74.4357 43.9561 74.3582L43.956 74.3583ZM43.5457 42.9581C43.5444 42.832 43.5405 42.7095 43.5393 42.5865C43.3807 26.7068 56.2636 13.6579 72.2502 13.4982C85.9975 13.3609 97.7128 22.6221 100.756 35.7641C101.857 35.5739 102.955 35.4698 104.032 35.4591C115.613 35.3434 125.129 44.6099 125.244 56.1114C125.359 67.6129 116.03 77.0642 104.438 77.18L88.7725 77.3364L43.9911 77.7837C34.3215 77.8802 26.3789 70.1451 26.283 60.5423C26.1874 50.9726 33.9207 43.1041 43.5463 42.9581" fill="white"></path>
    <path d="M21.9541 24.665C23.035 24.6542 24.1336 24.7343 25.2397 24.9057C28.024 11.4822 39.5607 1.82412 53.3245 1.68666C59.3179 1.6268 65.0887 3.39943 70.0156 6.80805C70.7975 7.35404 70.999 8.43603 70.4614 9.22819C69.9205 10.0238 68.8482 10.2236 68.0597 9.68104C63.7224 6.67512 58.6399 5.11506 53.3592 5.1678C40.7032 5.2942 30.1766 14.5639 28.3416 27.2047C28.2694 27.6916 27.9994 28.1198 27.6005 28.3939C27.205 28.668 26.7106 28.7608 26.2342 28.6475C24.7916 28.3006 23.3676 28.1325 21.9889 28.1463C12.2977 28.2431 4.48974 36.2801 4.5874 46.0582C4.67849 55.178 11.5274 62.694 20.5151 63.5396C21.4631 63.6314 22.1611 64.4821 22.0736 65.4386C21.9888 66.3343 21.2459 67.0103 20.3725 67.019C20.3157 67.0196 20.252 67.0176 20.1951 67.0101C9.43866 65.9964 1.24639 57.0047 1.1374 46.092C1.02056 34.3927 10.359 24.7803 21.9543 24.6645" fill="white"></path>
    <path d="M43.0972 91.7933C42.0822 91.8059 41.271 92.6333 41.2787 93.6483L41.307 96.4757L38.4797 96.504C37.4671 96.5141 36.6535 97.3441 36.6612 98.3592C36.6738 99.3741 37.5038 100.188 38.5164 100.177L41.3437 100.149L41.3694 102.974C41.3795 103.987 42.2095 104.8 43.2245 104.793C43.7333 104.788 44.1934 104.575 44.5203 104.242C44.8496 103.906 45.0505 103.444 45.0429 102.938L45.0172 100.113L47.8421 100.082C48.3508 100.077 48.8061 99.8691 49.1354 99.5333C49.4647 99.1973 49.6656 98.7355 49.6605 98.2268C49.6479 97.2118 48.818 96.3983 47.8054 96.4085L44.9805 96.439L44.9523 93.6116C44.9421 92.5991 44.1122 91.7856 43.0972 91.7933" fill="white"></path>
    <path d="M75.0955 91.4737C74.0806 91.4863 73.2694 92.3137 73.2771 93.3287L73.3054 96.1561L70.4781 96.1844C69.4655 96.1945 68.6519 97.0246 68.6596 98.0396C68.6721 99.0546 69.5022 99.868 70.5148 99.8579L73.342 99.8297L73.3678 102.655C73.3779 103.667 74.2079 104.481 75.2229 104.473C75.7316 104.468 76.1918 104.256 76.5187 103.922C76.848 103.586 77.0489 103.124 77.0413 102.618L77.0156 99.793L79.8405 99.7624C80.3492 99.7573 80.8045 99.5496 81.1338 99.2137C81.4631 98.8778 81.664 98.4159 81.6589 97.9072C81.6463 96.8922 80.8163 96.0788 79.8038 96.0889L76.9789 96.1195L76.9506 93.2921C76.9405 92.2795 76.1106 91.466 75.0955 91.4737" fill="white"></path>
    <path d="M107.094 91.1541C106.079 91.1667 105.268 91.9941 105.275 93.0092L105.304 95.8366L102.476 95.8648C101.464 95.8749 100.65 96.705 100.658 97.72C100.671 98.735 101.5 99.5485 102.513 99.5383L105.34 99.5101L105.366 102.335C105.376 103.348 106.206 104.161 107.221 104.154C107.73 104.148 108.19 103.936 108.517 103.602C108.846 103.266 109.047 102.805 109.04 102.298L109.014 99.4734L111.839 99.4428C112.348 99.4378 112.803 99.23 113.132 98.8941C113.461 98.5582 113.662 98.0964 113.657 97.5876C113.645 96.5727 112.815 95.7592 111.802 95.7693L108.977 95.7999L108.949 92.9725C108.939 91.9599 108.109 91.1464 107.094 91.1541Z" fill="white"></path>
    <path d="M27.3077 112.952C26.2927 112.965 25.4815 113.792 25.4892 114.807L25.5175 117.634L22.6902 117.663C21.6776 117.673 20.864 118.503 20.8717 119.518C20.8843 120.533 21.7143 121.346 22.7269 121.336L25.5542 121.308L25.5799 124.133C25.5901 125.146 26.42 125.959 27.435 125.951C27.9438 125.946 28.4039 125.734 28.7308 125.4C29.0601 125.064 29.261 124.603 29.2535 124.096L29.2277 121.271L32.0526 121.241C32.5613 121.236 33.0166 121.028 33.3459 120.692C33.6752 120.356 33.8761 119.894 33.871 119.386C33.8584 118.371 33.0285 117.557 32.0159 117.567L29.191 117.598L29.1628 114.77C29.1527 113.758 28.3227 112.944 27.3077 112.952" fill="white"></path>
    <path d="M59.306 112.632C58.2911 112.645 57.4799 113.472 57.4876 114.487L57.5159 117.315L54.6886 117.343C53.676 117.353 52.8624 118.183 52.8701 119.198C52.8826 120.213 53.7127 121.027 54.7253 121.017L57.5526 120.988L57.5783 123.813C57.5884 124.826 58.4184 125.64 59.4334 125.632C59.9422 125.627 60.4023 125.414 60.7292 125.081C61.0585 124.745 61.2594 124.283 61.2518 123.777L61.2261 120.952L64.051 120.921C64.5597 120.916 65.015 120.708 65.3443 120.372C65.6736 120.037 65.8745 119.575 65.8694 119.066C65.8568 118.051 65.0269 117.238 64.0143 117.248L61.1894 117.278L61.1611 114.451C61.151 113.438 60.3211 112.625 59.306 112.632" fill="white"></path>
    <path d="M91.3045 112.313C90.2895 112.325 89.4783 113.153 89.486 114.168L89.5143 116.995L86.687 117.024C85.6744 117.034 84.8608 117.864 84.8685 118.879C84.8811 119.894 85.7111 120.707 86.7237 120.697L89.551 120.669L89.5767 123.494C89.5868 124.506 90.4168 125.32 91.4318 125.312C91.9406 125.307 92.4007 125.095 92.7276 124.761C93.0569 124.425 93.2578 123.963 93.2503 123.457L93.2245 120.632L96.0494 120.602C96.5581 120.597 97.0134 120.389 97.3427 120.053C97.672 119.717 97.8729 119.255 97.8678 118.746C97.8552 117.731 97.0253 116.918 96.0127 116.928L93.1878 116.959L93.1596 114.131C93.1494 113.119 92.3195 112.305 91.3045 112.313" fill="white"></path>
  </symbol>
  <symbol fill="none" xmlns="http://www.w3.org/2000/svg" viewBox="0 0 125 126" id="sun">
    <mask id="mask0_3_63" maskUnits="userSpaceOnUse" x="0" y="0" width="125" height="126">
      <rect x="0.100342" y="1.28622" width="124" height="124" transform="rotate(-0.183501 0.100342 1.28622)" fill="#C4C4C4"></rect>
    </mask>
    <g mask="url(#mask0_3_63)">
      <path d="M62.6928 90.9388C47.5959 90.9871 35.2772 78.7436 35.2288 63.6466C35.1805 48.5532 47.4205 36.231 62.5175 36.1827C77.6144 36.1343 89.9331 48.3778 89.9814 63.4713C90.0298 78.5682 77.7898 90.8904 62.6928 90.9388ZM62.5051 32.3146C45.2761 32.3698 31.3056 46.43 31.3607 63.659C31.4159 80.888 45.4762 94.862 62.7052 94.8069C79.9308 94.7517 93.9047 80.6879 93.8495 63.4589C93.7944 46.2299 79.7307 32.2594 62.5051 32.3146Z" fill="#F5FCFF"></path>
      <path d="M62.4756 23.1552C63.5434 23.1518 64.4052 22.2844 64.4018 21.2132L64.3523 5.76831C64.3489 4.70053 63.4816 3.8388 62.4138 3.84222C61.346 3.84564 60.4808 4.71292 60.4842 5.7807L60.5337 21.2256C60.5371 22.2968 61.4079 23.1586 62.4756 23.1552Z" fill="#F5FCFF"></path>
      <path d="M62.7331 103.521C61.6653 103.524 60.8001 104.392 60.8035 105.463L60.853 120.908C60.8564 121.976 61.7271 122.837 62.7949 122.834C63.8627 122.83 64.7245 121.963 64.7211 120.895L64.6716 105.451C64.6682 104.379 63.8008 103.518 62.7331 103.521Z" fill="#F5FCFF"></path>
      <path d="M83.6509 29.1069C83.9684 29.3023 84.3201 29.3942 84.668 29.3931C85.3155 29.391 85.9482 29.0651 86.3114 28.4715L94.4017 15.3119C94.9568 14.4008 94.674 13.2134 93.7663 12.6514C92.8552 12.0929 91.6643 12.3756 91.1057 13.2867L83.0155 26.4499C82.457 27.3576 82.7398 28.5483 83.6509 29.1069" fill="#F5FCFF"></path>
      <path d="M41.5595 97.5692C40.6518 97.0106 39.4575 97.2934 38.8989 98.2045L30.8087 111.364C30.2502 112.275 30.5364 113.463 31.4441 114.025C31.7651 114.22 32.1133 114.312 32.4611 114.311C33.1087 114.309 33.7414 113.983 34.1046 113.389L42.1949 100.226C42.7534 99.3187 42.4671 98.1277 41.5595 97.5692" fill="#F5FCFF"></path>
      <path d="M99.6923 45.3227C100.002 45.3217 100.312 45.2486 100.604 45.0925L114.207 37.75C115.149 37.2441 115.5 36.072 114.991 35.1298C114.485 34.1946 113.313 33.8401 112.371 34.3494L98.7679 41.6883C97.8257 42.1942 97.4747 43.3699 97.984 44.3086C98.334 44.9585 99.0034 45.3249 99.6923 45.3227" fill="#F5FCFF"></path>
      <path d="M24.5789 81.7081L10.9692 89.0471C10.0305 89.5564 9.67949 90.7252 10.1854 91.6674C10.5388 92.3173 11.2048 92.6871 11.8971 92.6848C12.2036 92.6839 12.5134 92.6071 12.8057 92.451L26.4119 85.112C27.3541 84.6026 27.7051 83.4304 27.1992 82.4883C26.6899 81.553 25.5211 81.202 24.5789 81.7079" fill="#F5FCFF"></path>
      <path d="M120.193 61.1138L120.187 61.1138L104.729 61.2079C103.661 61.214 102.799 62.0854 102.806 63.1532C102.812 64.2175 103.68 65.0793 104.745 65.0759L104.75 65.0759L120.209 64.9818C121.276 64.9757 122.138 64.1042 122.131 63.0365C122.125 61.9687 121.257 61.1104 120.193 61.1138Z" fill="#F5FCFF"></path>
      <path d="M22.3817 63.6385C22.3756 62.5707 21.5076 61.7124 20.4398 61.7158L20.437 61.7158L4.97859 61.8102C3.90738 61.8164 3.04906 62.688 3.05593 63.7557C3.0621 64.8235 3.93009 65.6817 4.99442 65.6783L4.99993 65.6783L20.4584 65.5839C21.5261 65.5777 22.3845 64.7063 22.381 63.6385" fill="#F5FCFF"></path>
      <path d="M114.184 89.1026L100.589 81.7301C99.6507 81.2199 98.4772 81.568 97.967 82.5066C97.4602 83.4452 97.8085 84.6221 98.747 85.1289L112.338 92.4978C112.635 92.6622 112.952 92.7369 113.266 92.7359C113.948 92.7337 114.615 92.3665 114.961 91.7247C115.471 90.7827 115.119 89.6094 114.184 89.1026" fill="#F5FCFF"></path>
      <path d="M26.4702 41.5255L12.8789 34.1532C11.9404 33.643 10.7634 33.9911 10.2567 34.9297C9.74645 35.8683 10.0945 37.0452 11.0332 37.552L24.6245 44.9243C24.9213 45.0854 25.2384 45.1601 25.5519 45.1591C26.2373 45.1569 26.9009 44.7897 27.2502 44.1479C27.7569 43.2094 27.4087 42.0325 26.4702 41.5257" fill="#F5FCFF"></path>
      <path d="M86.7087 97.9748C86.1409 97.0741 84.9483 96.7989 84.0442 97.3701C83.1401 97.9379 82.8684 99.134 83.4396 100.035L91.6759 113.121C92.0429 113.706 92.6742 114.024 93.3184 114.022C93.6697 114.021 94.0207 113.927 94.3404 113.726C95.2445 113.158 95.5162 111.962 94.9484 111.058L86.7087 97.9748V97.9748Z" fill="#F5FCFF"></path>
      <path d="M38.5067 28.6832C38.8736 29.2676 39.5085 29.5894 40.1491 29.5874C40.5005 29.5862 40.8549 29.4886 41.1712 29.2913C42.0752 28.72 42.347 27.524 41.7792 26.6234L33.5394 13.5366C32.9717 12.636 31.779 12.3609 30.8715 12.9321C29.9674 13.4999 29.6992 14.696 30.2669 15.5966L38.5067 28.6832Z" fill="#F5FCFF"></path>
    </g>
  </symbol>
</svg>