<svg width="125" height="126" viewBox="0 0 125 126" fill="none" xmlns="http://www.w3.org/2000/svg">
<mask id="mask0_3_63" style="mask-type:alpha" maskUnits="userSpaceOnUse" x="0" y="0" width="125" height="126">
<rect x="0.100342" y="1.28622" width="124" height="124" transform="rotate(-0.183501 0.100342 1.28622)" fill="#C4C4C4"/>
</mask>
<g mask="url(#mask0_3_63)">
<path d="M62.6928 90.9388C47.5959 90.9871 35.2772 78.7436 35.2288 63.6466C35.1805 48.5532 47.4205 36.231 62.5175 36.1827C77.6144 36.1343 89.9331 48.3778 89.9814 63.4713C90.0298 78.5682 77.7898 90.8904 62.6928 90.9388ZM62.5051 32.3146C45.2761 32.3698 31.3056 46.43 31.3607 63.659C31.4159 80.888 45.4762 94.862 62.7052 94.8069C79.9308 94.7517 93.9047 80.6879 93.8495 63.4589C93.7944 46.2299 79.7307 32.2594 62.5051 32.3146Z" fill="#F5FCFF"/>
<path d="M62.4756 23.1552C63.5434 23.1518 64.4052 22.2844 64.4018 21.2132L64.3523 5.76831C64.3489 4.70053 63.4816 3.8388 62.4138 3.84222C61.346 3.84564 60.4808 4.71292 60.4842 5.7807L60.5337 21.2256C60.5371 22.2968 61.4079 23.1586 62.4756 23.1552Z" fill="#F5FCFF"/>
<path d="M62.7331 103.521C61.6653 103.524 60.8001 104.392 60.8035 105.463L60.853 120.908C60.8564 121.976 61.7271 122.837 62.7949 122.834C63.8627 122.83 64.7245 121.963 64.7211 120.895L64.6716 105.451C64.6682 104.379 63.8008 103.518 62.7331 103.521Z" fill="#F5FCFF"/>
<path d="M83.6509 29.1069C83.9684 29.3023 84.3201 29.3942 84.668 29.3931C85.3155 29.391 85.9482 29.0651 86.3114 28.4715L94.4017 15.3119C94.9568 14.4008 94.674 13.2134 93.7663 12.6514C92.8552 12.0929 91.6643 12.3756 91.1057 13.2867L83.0155 26.4499C82.457 27.3576 82.7398 28.5483 83.6509 29.1069" fill="#F5FCFF"/>
<path d="M41.5595 97.5692C40.6518 97.0106 39.4575 97.2934 38.8989 98.2045L30.8087 111.364C30.2502 112.275 30.5364 113.463 31.4441 114.025C31.7651 114.22 32.1133 114.312 32.4611 114.311C33.1087 114.309 33.7414 113.983 34.1046 113.389L42.1949 100.226C42.7534 99.3187 42.4671 98.1277 41.5595 97.5692" fill="#F5FCFF"/>
<path d="M99.6923 45.3227C100.002 45.3217 100.312 45.2486 100.604 45.0925L114.207 37.75C115.149 37.2441 115.5 36.072 114.991 35.1298C114.485 34.1946 113.313 33.8401 112.371 34.3494L98.7679 41.6883C97.8257 42.1942 97.4747 43.3699 97.984 44.3086C98.334 44.9585 99.0034 45.3249 99.6923 45.3227" fill="#F5FCFF"/>
<path d="M24.5789 81.7081L10.9692 89.0471C10.0305 89.5564 9.67949 90.7252 10.1854 91.6674C10.5388 92.3173 11.2048 92.6871 11.8971 92.6848C12.2036 92.6839 12.5134 92.6071 12.8057 92.451L26.4119 85.112C27.3541 84.6026 27.7051 83.4304 27.1992 82.4883C26.6899 81.553 25.5211 81.202 24.5789 81.7079" fill="#F5FCFF"/>
<path d="M120.193 61.1138L120.187 61.1138L104.729 61.2079C103.661 61.214 102.799 62.0854 102.806 63.1532C102.812 64.2175 103.68 65.0793 104.745 65.0759L104.75 65.0759L120.209 64.9818C121.276 64.9757 122.138 64.1042 122.131 63.0365C122.125 61.9687 121.257 61.1104 120.193 61.1138Z" fill="#F5FCFF"/>
<path d="M22.3817 63.6385C22.3756 62.5707 21.5076 61.7124 20.4398 61.7158L20.437 61.7158L4.97859 61.8102C3.90738 61.8164 3.04906 62.688 3.05593 63.7557C3.0621 64.8235 3.93009 65.6817 4.99442 65.6783L4.99993 65.6783L20.4584 65.5839C21.5261 65.5777 22.3845 64.7063 22.381 63.6385" fill="#F5FCFF"/>
<path d="M114.184 89.1026L100.589 81.7301C99.6507 81.2199 98.4772 81.568 97.967 82.5066C97.4602 83.4452 97.8085 84.6221 98.747 85.1289L112.338 92.4978C112.635 92.6622 112.952 92.7369 113.266 92.7359C113.948 92.7337 114.615 92.3665 114.961 91.7247C115.471 90.7827 115.119 89.6094 114.184 89.1026" fill="#F5FCFF"/>
<path d="M26.4702 41.5255L12.8789 34.1532C11.9404 33.643 10.7634 33.9911 10.2567 34.9297C9.74645 35.8683 10.0945 37.0452 11.0332 37.552L24.6245 44.9243C24.9213 45.0854 25.2384 45.1601 25.5519 45.1591C26.2373 45.1569 26.9009 44.7897 27.2502 44.1479C27.7569 43.2094 27.4087 42.0325 26.4702 41.5257" fill="#F5FCFF"/>
<path d="M86.7087 97.9748C86.1409 97.0741 84.9483 96.7989 84.0442 97.3701C83.1401 97.9379 82.8684 99.134 83.4396 100.035L91.6759 113.121C92.0429 113.706 92.6742 114.024 93.3184 114.022C93.6697 114.021 94.0207 113.927 94.3404 113.726C95.2445 113.158 95.5162 111.962 94.9484 111.058L86.7087 97.9748V97.9748Z" fill="#F5FCFF"/>
<path d="M38.5067 28.6832C38.8736 29.2676 39.5085 29.5894 40.1491 29.5874C40.5005 29.5862 40.8549 29.4886 41.1712 29.2913C42.0752 28.72 42.347 27.524 41.7792 26.6234L33.5394 13.5366C32.9717 12.636 31.779 12.3609 30.8715 12.9321C29.9674 13.4999 29.6992 14.696 30.2669 15.5966L38.5067 28.6832Z" fill="#F5FCFF"/>
</g>
</svg>
